HIERARCHY
ROOT Hips
{
 OFFSET 0.000000 0.000000 0.000000
 CHANNELS 6 Xposition Yposition Zposition Yrotation Xrotation Zrotation
 JOINT Chest
 {
  OFFSET 0.000000 14.374500 -0.011500
  CHANNELS 3 Yrotation Xrotation Zrotation
  JOINT Chest2
  {
   OFFSET 0.000000 9.203400 0.023400
   CHANNELS 3 Yrotation Xrotation Zrotation
   JOINT Chest3
   {
    OFFSET 0.000000 9.162700 0.000000
    CHANNELS 3 Yrotation Xrotation Zrotation
    JOINT Chest4
    {
     OFFSET 0.000000 9.153300 0.000000
     CHANNELS 3 Yrotation Xrotation Zrotation
     JOINT Neck
     {
      OFFSET 0.000000 13.353600 0.000000
      CHANNELS 3 Yrotation Xrotation Zrotation
      JOINT Head
      {
       OFFSET 0.000000 8.573800 0.049400
       CHANNELS 3 Yrotation Xrotation Zrotation
       End Site
       {
        OFFSET 0.000000 16.219200 0.026100
       }
      }
     }
     JOINT RightCollar
     {
      OFFSET -2.497100 8.876100 0.000000
      CHANNELS 3 Yrotation Xrotation Zrotation
      JOINT RightShoulder
      {
       OFFSET -12.289200 0.000000 0.000000
       CHANNELS 3 Yrotation Xrotation Zrotation
       JOINT RightElbow
       {
        OFFSET 0.000000 -28.194900 0.000000
        CHANNELS 3 Yrotation Xrotation Zrotation
        JOINT RightWrist
        {
         OFFSET 0.000000 -23.009700 0.007900
         CHANNELS 3 Yrotation Xrotation Zrotation
         End Site
         {
          OFFSET 0.000000 -17.151500 0.000000
         }
        }
       }
      }
     }
     JOINT LeftCollar
     {
      OFFSET 2.497100 8.876100 0.000000
      CHANNELS 3 Yrotation Xrotation Zrotation
      JOINT LeftShoulder
      {
       OFFSET 12.289200 0.000000 0.000000
       CHANNELS 3 Yrotation Xrotation Zrotation
       JOINT LeftElbow
       {
        OFFSET 0.000000 -28.194900 0.000000
        CHANNELS 3 Yrotation Xrotation Zrotation
        JOINT LeftWrist
        {
         OFFSET 0.000000 -23.009700 0.007900
         CHANNELS 3 Yrotation Xrotation Zrotation
         End Site
         {
          OFFSET 0.000000 -17.151500 0.000000
         }
        }
       }
      }
     }
    }
   }
  }
 }
 JOINT RightHip
 {
  OFFSET -11.777600 0.056700 0.005700
  CHANNELS 3 Yrotation Xrotation Zrotation
  JOINT RightKnee
  {
   OFFSET 0.000000 -39.966000 -0.004200
   CHANNELS 3 Yrotation Xrotation Zrotation
   JOINT RightAnkle
   {
    OFFSET 0.000000 -41.981900 0.027400
    CHANNELS 3 Yrotation Xrotation Zrotation
    JOINT RightToe
    {
     OFFSET 0.000000 -9.910600 16.950100
     CHANNELS 3 Yrotation Xrotation Zrotation
     End Site
     {
      OFFSET 0.000000 -1.461000 6.191600
     }
    }
   }
  }
 }
 JOINT LeftHip
 {
  OFFSET 11.777600 0.056700 0.005700
  CHANNELS 3 Yrotation Xrotation Zrotation
  JOINT LeftKnee
  {
   OFFSET 0.000000 -39.966000 -0.004200
   CHANNELS 3 Yrotation Xrotation Zrotation
   JOINT LeftAnkle
   {
    OFFSET 0.000000 -41.981900 0.027400
    CHANNELS 3 Yrotation Xrotation Zrotation
    JOINT LeftToe
    {
     OFFSET 0.000000 -9.910600 16.950100
     CHANNELS 3 Yrotation Xrotation Zrotation
     End Site
     {
      OFFSET 0.000000 -1.461000 6.191600
     }
    }
   }
  }
 }
}
MOTION
Frames: 16
Frame Time: 0.008333
-4.192787 130.431581 80.282019 171.643651 -54.574285 -3.312857 6.216895 28.410916 4.305927 0.956726 5.337148 0.545826 1.533941 8.350043 0.894445 4.740220 22.911302 3.129709 1.227802 19.258246 0.294341 1.232791 -5.380392 0.032284 1.654566 -3.266146 -0.712165 4.050542 -3.199766 3.583015 -67.143048 -73.061776 73.313582 15.007871 -16.005234 -68.909970 -9.522778 -5.754796 2.423419 2.974928 -5.487925 -2.410779 67.695086 -43.906704 -87.175505 -23.553830 -39.736620 71.276158 6.643225 -24.068349 6.255922 -64.884571 83.783004 -68.401802 2.057019 -23.645595 9.796372 0.001526 -0.009460 0.000892 -1.087934 -22.362737 0.239734 151.867595 70.016353 162.128146 -6.980735 9.425100 -7.076711 0.001303 -0.017886 0.000762
-4.193886 130.427468 80.294344 171.651938 -54.613750 -3.323253 6.223152 28.441131 4.314583 0.987252 5.365863 0.545890 1.539800 8.402551 0.900411 4.718342 22.875733 3.131914 1.243729 19.083865 0.270862 1.236740 -5.621248 0.009362 1.666995 -3.193134 -0.718986 3.967318 -3.141295 3.616230 -67.139672 -72.947645 73.437894 14.984273 -16.023927 -68.944996 -9.510344 -5.699869 2.419578 3.072692 -5.412555 -2.435418 67.615514 -43.769835 -87.196399 -23.528275 -39.735513 71.276269 6.609583 -24.033194 6.279294 -64.655970 83.752164 -68.192127 2.070410 -23.629698 9.786472 0.001657 -0.004633 0.000969 -1.083518 -22.328643 0.229407 151.813170 70.028583 162.078533 -6.965143 9.404356 -7.070212 -0.001052 -0.009612 -0.000615
-4.195590 130.424544 80.303180 171.662746 -54.648639 -3.333725 6.238503 28.465507 4.326357 0.997328 5.394887 0.549987 1.521414 8.393503 0.901232 4.762692 22.963239 3.144324 1.219837 18.842379 0.249638 1.222632 -5.868963 -0.010326 1.649874 -3.209636 -0.726972 3.895439 -3.068784 3.654287 -67.088097 -72.851856 73.492279 14.960951 -16.040295 -68.980153 -9.541657 -5.754897 2.436107 3.142821 -5.305801 -2.460601 67.554700 -43.625164 -87.187169 -23.496326 -39.739994 71.275849 6.584952 -24.002079 6.296544 -64.472746 83.723683 -68.019771 2.081636 -23.617122 9.777040 0.002943 -0.001346 0.001721 -1.078717 -22.296495 0.213051 151.750353 70.039826 162.020808 -6.952860 9.384671 -7.061164 -0.002903 -0.004079 -0.001697
-4.199968 130.425991 80.305549 171.678969 -54.692860 -3.336170 6.253766 28.508247 4.332146 0.995467 5.415022 0.550711 1.534558 8.423612 0.906194 4.783022 23.010804 3.154122 1.181793 18.599532 0.229544 1.195176 -6.116500 -0.026268 1.611551 -3.289628 -0.726124 3.860408 -2.948624 3.685924 -67.019314 -72.762894 73.500244 14.939744 -16.064094 -69.005817 -9.578643 -5.812056 2.453388 3.177737 -5.213755 -2.482216 67.522782 -43.462191 -87.165386 -23.450709 -39.751518 71.270646 6.576229 -23.958704 6.293425 -64.313751 83.708121 -67.859867 2.078407 -23.616084 9.765232 0.002067 -0.008225 0.001208 -1.070174 -22.252907 0.180665 151.681515 70.062702 161.952955 -6.940483 9.389577 -7.051044 -0.003608 -0.009738 -0.002109
-4.202951 130.427727 80.305172 171.718337 -54.723751 -3.362743 6.260112 28.550577 4.341436 1.001280 5.434163 0.554666 1.537830 8.445268 0.909119 4.791522 23.029705 3.162341 1.144381 18.381395 0.210164 1.158824 -6.358857 -0.038392 1.603182 -3.301574 -0.736686 3.828849 -2.892138 3.719170 -66.951041 -72.680349 73.473526 14.914275 -16.096620 -69.015206 -9.602193 -5.823435 2.458887 3.180881 -5.161818 -2.497273 67.520052 -43.275175 -87.142549 -23.396868 -39.769589 71.261688 6.554471 -23.925686 6.291282 -64.133556 83.700353 -67.678435 2.081180 -23.612465 9.750778 0.001417 -0.016444 0.000828 -1.080496 -22.220355 0.158595 151.638188 70.077968 161.908358 -6.929247 9.383517 -7.042541 -0.003229 -0.011519 -0.001888
-4.205606 130.427001 80.303738 171.736694 -54.729085 -3.373689 6.311232 28.594781 4.367779 0.983158 5.434302 0.556923 1.567706 8.503846 0.916498 4.761487 22.994900 3.165887 1.103022 18.169601 0.191208 1.118369 -6.593327 -0.049058 1.598252 -3.321859 -0.745034 3.820746 -2.844606 3.743821 -66.875495 -72.607612 73.407749 14.880617 -16.133711 -69.010405 -9.626317 -5.843680 2.462437 3.177100 -5.157884 -2.501013 67.494659 -43.042988 -87.074585 -23.343699 -39.790936 71.260300 6.548713 -23.917914 6.285757 -63.975407 83.693173 -67.515708 2.079885 -23.612958 9.742086 0.000779 -0.018861 0.000455 -1.086415 -22.214423 0.147145 151.654311 70.098782 161.918224 -6.915792 9.384281 -7.037560 0.001153 -0.016755 0.000674
-4.207781 130.425068 80.300531 171.788108 -54.712821 -3.413060 6.297922 28.601132 4.371914 0.988430 5.451745 0.557954 1.565572 8.502199 0.919146 4.769612 23.018096 3.171914 1.061074 17.966886 0.172903 1.077304 -6.816933 -0.058885 1.608458 -3.347009 -0.754942 3.820141 -2.809570 3.762338 -66.793765 -72.539859 73.309062 14.844014 -16.168187 -68.999427 -9.644145 -5.874023 2.461073 3.168765 -5.143882 -2.500210 67.483677 -42.803036 -87.031806 -23.290471 -39.809734 71.264614 6.526558 -23.926035 6.276326 -63.846810 83.687096 -67.379807 2.083867 -23.625459 9.729978 0.000101 -0.025957 0.000059 -1.107598 -22.227704 0.127779 151.620225 70.096188 161.887191 -6.911953 9.366213 -7.032376 0.000646 -0.010742 0.000377
-4.209125 130.423748 80.294514 171.812293 -54.686654 -3.432233 6.286695 28.583527 4.370797 0.992870 5.464571 0.558026 1.574645 8.530306 0.919200 4.774410 23.023038 3.175739 1.019844 17.776581 0.156886 1.036612 -7.026257 -0.066441 1.600455 -3.392457 -0.757256 3.829692 -2.789626 3.770052 -66.637049 -72.460981 73.135441 14.810171 -16.201800 -68.989664 -9.659980 -5.903097 2.471207 3.157803 -5.100978 -2.515067 67.514488 -42.578247 -87.048910 -23.230222 -39.824374 71.258639 6.545235 -23.942259 6.251416 -63.717944 83.688267 -67.219623 2.083861 -23.634379 9.726839 -0.004864 -0.021088 -0.002843 -1.116580 -22.249108 0.115160 151.597547 70.091088 161.864534 -6.907407 9.353989 -7.027770 0.000318 -0.006862 0.000186
-4.209203 130.425033 80.284677 171.822550 -54.660917 -3.443119 6.300098 28.597305 4.377548 0.985912 5.446023 0.559638 1.585412 8.566772 0.916365 4.772998 23.001161 3.178934 0.981596 17.610937 0.141499 0.996854 -7.217765 -0.070970 1.607894 -3.422648 -0.769800 3.832345 -2.775406 3.785987 -66.522117 -72.394292 73.001221 14.780594 -16.235906 -68.983965 -9.670108 -5.922385 2.476255 3.146458 -5.067742 -2.517135 67.555055 -42.348759 -87.084563 -23.163014 -39.838603 71.238479 6.547388 -23.963914 6.246506 -63.681338 83.689966 -67.174587 2.080585 -23.634075 9.725763 -0.004580 -0.024018 -0.002677 -1.118638 -22.267783 0.111115 151.596556 70.083358 161.861927 -6.891035 9.338126 -7.034113 0.000540 -0.009911 0.000316
-4.207813 130.420447 80.277590 171.828461 -54.595177 -3.457987 6.322143 28.612725 4.383407 0.981639 5.409447 0.564997 1.583305 8.559976 0.913680 4.770901 22.972096 3.184163 0.963721 17.536958 0.133475 0.944690 -7.446411 -0.075101 1.605816 -3.434211 -0.770400 3.876686 -2.750838 3.780959 -66.512451 -72.345853 72.953094 14.756570 -16.263526 -68.977430 -9.675596 -5.926620 2.478584 3.154000 -5.045675 -2.522291 67.588434 -42.133973 -87.127956 -23.091090 -39.848419 71.206504 6.548623 -24.027683 6.244492 -63.660919 83.690890 -67.146193 2.087483 -23.639699 9.722043 -0.002311 -0.024835 -0.001351 -1.129047 -22.331895 0.131302 151.637492 70.074995 161.900407 -6.897393 9.333281 -7.045500 0.001811 -0.006762 0.001059
-4.206507 130.416275 80.268794 171.837818 -54.522107 -3.474429 6.325876 28.587772 4.383282 0.984666 5.406302 0.564258 1.578272 8.531947 0.916736 4.781054 22.988662 3.182035 0.917560 17.357271 0.124390 0.917574 -7.562846 -0.066107 1.597736 -3.474770 -0.773351 3.910500 -2.740720 3.774902 -66.517030 -72.300774 72.924096 14.742506 -16.284650 -68.961899 -9.687377 -5.979589 2.486704 3.173101 -5.016671 -2.517562 67.618647 -41.948473 -87.175833 -23.020361 -39.850173 71.167901 6.572880 -24.095804 6.229484 -63.700127 83.696909 -67.149805 2.072798 -23.650383 9.720953 -0.003419 -0.021218 -0.001999 -1.145059 -22.403149 0.147935 151.699873 70.059435 161.960621 -6.903654 9.322342 -7.049655 0.003759 -0.003025 0.002198
-4.205154 130.414750 80.257090 171.837678 -54.454998 -3.481712 6.324535 28.532327 4.382790 0.991136 5.464860 0.546938 1.576255 8.476620 0.930354 4.784583 22.992617 3.156630 0.883609 17.200557 0.141303 0.894455 -7.655788 -0.051943 1.579107 -3.515768 -0.770017 3.940221 -2.727808 3.782598 -66.526236 -72.269040 72.916043 14.741977 -16.306837 -68.939904 -9.693686 -6.016303 2.513326 3.210732 -5.000607 -2.510199 67.639099 -41.802686 -87.223973 -22.960292 -39.848756 71.128820 6.583449 -24.161818 6.222262 -63.836284 83.706180 -67.276217 2.073656 -23.658625 9.725833 -0.003815 -0.024360 -0.002230 -1.155673 -22.465306 0.162875 151.780737 70.039902 162.038448 -6.904214 9.308663 -7.055732 0.005354 0.000581 0.003131
-4.205911 130.414551 80.243294 171.840169 -54.389049 -3.481738 6.321802 28.505809 4.365609 0.989091 5.440028 0.550854 1.574311 8.485228 0.906507 4.792857 22.957941 3.164482 0.860440 17.109634 0.154157 0.866812 -7.754575 -0.033199 1.578603 -3.513697 -0.758055 3.916725 -2.760824 3.732091 -66.450747 -72.190093 72.862146 14.773297 -16.346811 -68.920476 -9.694160 -6.033134 2.523202 3.267480 -4.991567 -2.499714 67.652975 -41.706532 -87.268786 -22.914071 -39.846004 71.090946 6.587340 -24.225492 6.208953 -64.139105 83.724925 -67.578230 2.068477 -23.680468 9.732495 -0.002130 -0.027496 -0.001245 -1.163898 -22.524280 0.167183 151.854548 70.020513 162.106880 -6.904032 9.300193 -7.061521 0.006870 0.003428 0.004017
-4.204960 130.413819 80.229881 171.838882 -54.316064 -3.486011 6.322061 28.472256 4.354681 0.988545 5.414020 0.554795 1.571030 8.473446 0.899086 4.794386 22.941588 3.158727 0.834556 17.029030 0.166918 0.842047 -7.834390 -0.009363 1.580899 -3.508209 -0.750029 3.890890 -2.782930 3.713437 -66.402860 -72.169850 72.828985 14.818018 -16.386199 -68.899730 -9.694364 -6.053453 2.530051 3.320782 -4.988814 -2.486969 67.685940 -41.668222 -87.313034 -22.884721 -39.842193 71.058442 6.611292 -24.296928 6.196970 -64.335973 83.742078 -67.758161 2.060701 -23.685880 9.740184 -0.002444 -0.028359 -0.001429 -1.171905 -22.592422 0.177529 151.933801 69.994304 162.182716 -6.900066 9.291459 -7.065744 0.005814 0.004969 0.003399
-4.203739 130.413088 80.216360 171.836708 -54.239884 -3.491209 6.319302 28.430411 4.341261 0.987605 5.399398 0.551779 1.575006 8.452746 0.908569 4.794777 22.935808 3.156533 0.799421 16.945865 0.172101 0.819598 -7.897421 0.017531 1.563996 -3.564130 -0.776001 3.872792 -2.760956 3.723850 -66.423862 -72.269012 72.849476 14.782075 -16.373609 -68.857082 -9.696145 -6.089297 2.528858 3.406602 -5.035159 -2.480310 67.663846 -41.675271 -87.298933 -22.878094 -39.839591 71.036185 6.667094 -24.372294 6.171971 -64.525721 83.756780 -67.900211 2.050885 -23.686473 9.751911 -0.003610 -0.027229 -0.002110 -1.179832 -22.663734 0.189596 152.008841 69.964619 162.253816 -6.897876 9.282011 -7.065541 0.003438 0.005485 0.002010
-4.200002 130.413213 80.202766 171.832016 -54.165168 -3.505149 6.322160 28.389847 4.341155 0.977279 5.392980 0.533590 1.581505 8.418743 0.916550 4.790654 22.911109 3.144136 0.787618 16.888281 0.197893 0.798137 -7.944348 0.045929 1.573674 -3.577306 -0.768506 3.846000 -2.766578 3.718370 -66.382636 -72.345068 72.812027 14.801952 -16.382831 -68.834236 -9.681579 -6.092760 2.540984 3.453641 -5.075167 -2.485110 67.705816 -41.762381 -87.306396 -22.888809 -39.840162 71.021908 6.692250 -24.449786 6.166143 -64.651199 83.767602 -67.999641 2.061271 -23.648486 9.763807 -0.004408 -0.019636 -0.002577 -1.188410 -22.730482 0.216395 152.084270 69.935807 162.326602 -6.898884 9.271741 -7.060055 -0.000262 0.004781 -0.000153
